# Blender 4.3.2
# www.blender.org
mtllib sphere.mtl
o Sphere
v 0.270598 0.923880 -0.270598
v 0.500000 0.707107 -0.500000
v 0.653281 0.382683 -0.653281
v 0.707107 0.000000 -0.707107
v 0.653281 -0.382683 -0.653281
v 0.500000 -0.707107 -0.500000
v 0.270598 -0.923880 -0.270598
v 0.382683 0.923880 0.000000
v 0.707107 0.707107 0.000000
v 0.923879 0.382683 0.000000
v 1.000000 0.000000 0.000000
v 0.923879 -0.382683 0.000000
v 0.707107 -0.707107 0.000000
v 0.382683 -0.923880 0.000000
v 0.270598 0.923880 0.270598
v 0.500000 0.707107 0.500000
v 0.653281 0.382683 0.653281
v 0.707107 0.000000 0.707107
v 0.653281 -0.382683 0.653281
v 0.500000 -0.707107 0.500000
v 0.270598 -0.923880 0.270598
v 0.000000 0.923880 0.382683
v 0.000000 0.707107 0.707107
v 0.000000 0.382683 0.923879
v 0.000000 0.000000 1.000000
v 0.000000 -0.382683 0.923879
v 0.000000 -0.707107 0.707107
v 0.000000 -0.923880 0.382683
v -0.270598 0.923880 0.270598
v -0.500000 0.707107 0.500000
v -0.653281 0.382683 0.653281
v -0.707107 0.000000 0.707107
v -0.653281 -0.382683 0.653281
v -0.500000 -0.707107 0.500000
v -0.270598 -0.923880 0.270598
v -0.382683 0.923880 0.000000
v -0.707107 0.707107 0.000000
v -0.923879 0.382683 0.000000
v -1.000000 0.000000 0.000000
v -0.923879 -0.382683 0.000000
v -0.707107 -0.707107 0.000000
v -0.382683 -0.923880 0.000000
v -0.270598 0.923880 -0.270598
v -0.500000 0.707107 -0.500000
v -0.653281 0.382683 -0.653281
v -0.707107 0.000000 -0.707107
v -0.653281 -0.382683 -0.653281
v -0.500000 -0.707107 -0.500000
v -0.270598 -0.923880 -0.270598
v 0.000000 -1.000000 0.000000
v 0.000000 1.000000 0.000000
v 0.000000 0.923880 -0.382683
v 0.000000 0.707107 -0.707107
v 0.000000 0.382683 -0.923879
v 0.000000 0.000000 -1.000000
v 0.000000 -0.382683 -0.923879
v 0.000000 -0.707107 -0.707107
v 0.000000 -0.923880 -0.382683
vn 0.3764 -0.1807 -0.9087
vn 0.3256 0.5253 -0.7862
vn 0.0805 0.9776 -0.1945
vn 0.0805 -0.9776 -0.1945
vn 0.3256 -0.5253 -0.7862
vn 0.3764 0.1807 -0.9087
vn 0.2243 0.8103 -0.5414
vn 0.2243 -0.8103 -0.5414
vn 0.1945 -0.9776 -0.0805
vn 0.7862 -0.5253 -0.3256
vn 0.9087 0.1807 -0.3764
vn 0.5414 0.8103 -0.2243
vn 0.5414 -0.8103 -0.2243
vn 0.9087 -0.1807 -0.3764
vn 0.7862 0.5253 -0.3256
vn 0.1945 0.9776 -0.0805
vn 0.5414 0.8103 0.2243
vn 0.5414 -0.8103 0.2243
vn 0.9087 -0.1807 0.3764
vn 0.7862 0.5253 0.3256
vn 0.1945 0.9776 0.0805
vn 0.1945 -0.9776 0.0805
vn 0.7862 -0.5253 0.3256
vn 0.9087 0.1807 0.3764
vn 0.2243 -0.8103 0.5414
vn 0.3764 -0.1807 0.9087
vn 0.3256 0.5253 0.7862
vn 0.0805 0.9776 0.1945
vn 0.0805 -0.9776 0.1945
vn 0.3256 -0.5253 0.7862
vn 0.3764 0.1807 0.9087
vn 0.2243 0.8103 0.5414
vn -0.0805 0.9776 0.1945
vn -0.0805 -0.9776 0.1945
vn -0.3256 -0.5253 0.7862
vn -0.3764 0.1807 0.9087
vn -0.2243 0.8103 0.5414
vn -0.2243 -0.8103 0.5414
vn -0.3764 -0.1807 0.9087
vn -0.3256 0.5253 0.7862
vn -0.7862 -0.5253 0.3256
vn -0.9087 0.1807 0.3764
vn -0.5414 0.8103 0.2243
vn -0.5414 -0.8103 0.2243
vn -0.9087 -0.1807 0.3764
vn -0.7862 0.5253 0.3256
vn -0.1945 0.9776 0.0805
vn -0.1945 -0.9776 0.0805
vn -0.5414 -0.8103 -0.2243
vn -0.9087 -0.1807 -0.3764
vn -0.7862 0.5253 -0.3256
vn -0.1945 0.9776 -0.0805
vn -0.1945 -0.9776 -0.0805
vn -0.7862 -0.5253 -0.3256
vn -0.9087 0.1807 -0.3764
vn -0.5414 0.8103 -0.2243
vn -0.3764 -0.1807 -0.9087
vn -0.3256 0.5253 -0.7862
vn -0.0805 0.9776 -0.1945
vn -0.0805 -0.9776 -0.1945
vn -0.3256 -0.5253 -0.7862
vn -0.3764 0.1807 -0.9087
vn -0.2243 0.8103 -0.5414
vn -0.2243 -0.8103 -0.5414
s 0
f 56//1 55//1 4//1 5//1
f 54//2 53//2 2//2 3//2
f 52//3 51//3 1//3
f 50//4 58//4 7//4
f 57//5 56//5 5//5 6//5
f 55//6 54//6 3//6 4//6
f 53//7 52//7 1//7 2//7
f 58//8 57//8 6//8 7//8
f 50//9 7//9 14//9
f 6//10 5//10 12//10 13//10
f 4//11 3//11 10//11 11//11
f 2//12 1//12 8//12 9//12
f 7//13 6//13 13//13 14//13
f 5//14 4//14 11//14 12//14
f 3//15 2//15 9//15 10//15
f 1//16 51//16 8//16
f 9//17 8//17 15//17 16//17
f 14//18 13//18 20//18 21//18
f 12//19 11//19 18//19 19//19
f 10//20 9//20 16//20 17//20
f 8//21 51//21 15//21
f 50//22 14//22 21//22
f 13//23 12//23 19//23 20//23
f 11//24 10//24 17//24 18//24
f 21//25 20//25 27//25 28//25
f 19//26 18//26 25//26 26//26
f 17//27 16//27 23//27 24//27
f 15//28 51//28 22//28
f 50//29 21//29 28//29
f 20//30 19//30 26//30 27//30
f 18//31 17//31 24//31 25//31
f 16//32 15//32 22//32 23//32
f 22//33 51//33 29//33
f 50//34 28//34 35//34
f 27//35 26//35 33//35 34//35
f 25//36 24//36 31//36 32//36
f 23//37 22//37 29//37 30//37
f 28//38 27//38 34//38 35//38
f 26//39 25//39 32//39 33//39
f 24//40 23//40 30//40 31//40
f 34//41 33//41 40//41 41//41
f 32//42 31//42 38//42 39//42
f 30//43 29//43 36//43 37//43
f 35//44 34//44 41//44 42//44
f 33//45 32//45 39//45 40//45
f 31//46 30//46 37//46 38//46
f 29//47 51//47 36//47
f 50//48 35//48 42//48
f 42//49 41//49 48//49 49//49
f 40//50 39//50 46//50 47//50
f 38//51 37//51 44//51 45//51
f 36//52 51//52 43//52
f 50//53 42//53 49//53
f 41//54 40//54 47//54 48//54
f 39//55 38//55 45//55 46//55
f 37//56 36//56 43//56 44//56
f 47//57 46//57 55//57 56//57
f 45//58 44//58 53//58 54//58
f 43//59 51//59 52//59
f 50//60 49//60 58//60
f 48//61 47//61 56//61 57//61
f 46//62 45//62 54//62 55//62
f 44//63 43//63 52//63 53//63
f 49//64 48//64 57//64 58//64
